<svg width="13" height="13" viewBox="0 0 13 13" fill="none" xmlns="http://www.w3.org/2000/svg">
<path d="M4.1695 6.25556C4.1695 5.10398 5.10251 4.1702 6.25375 4.1702C7.40499 4.1702 8.3385 5.10398 8.3385 6.25556C8.3385 7.40713 7.40499 8.34091 6.25375 8.34091C5.10251 8.34091 4.1695 7.40713 4.1695 6.25556ZM3.04252 6.25556C3.04252 8.02963 4.48019 9.46771 6.25375 9.46771C8.02731 9.46771 9.46497 8.02963 9.46497 6.25556C9.46497 4.48148 8.02731 3.0434 6.25375 3.0434C4.48019 3.0434 3.04252 4.48148 3.04252 6.25556ZM8.84165 2.91604C8.84159 3.06451 8.88555 3.20966 8.96796 3.33314C9.05037 3.45662 9.16753 3.55288 9.30464 3.60975C9.44174 3.66662 9.59263 3.68155 9.73821 3.65264C9.8838 3.62373 10.0175 3.55229 10.1225 3.44735C10.2275 3.34241 10.2991 3.20869 10.3281 3.06308C10.3571 2.91748 10.3423 2.76654 10.2855 2.62935C10.2288 2.49216 10.1327 2.37488 10.0093 2.29235C9.8859 2.20982 9.74083 2.16573 9.5924 2.16567H9.5921C9.39315 2.16577 9.20237 2.24484 9.06166 2.38553C8.92095 2.52623 8.84182 2.71703 8.84165 2.91604V2.91604ZM3.72723 11.3474C3.11752 11.3197 2.78612 11.2181 2.56589 11.1322C2.27391 11.0185 2.06559 10.8831 1.84656 10.6643C1.62753 10.4455 1.49194 10.2373 1.37878 9.94528C1.29293 9.72509 1.19136 9.39349 1.16365 8.7836C1.13333 8.12422 1.12728 7.92614 1.12728 6.25561C1.12728 4.58507 1.13383 4.38755 1.16365 3.72761C1.19141 3.11772 1.29373 2.78677 1.37878 2.56593C1.49244 2.27387 1.62783 2.06548 1.84656 1.84639C2.06529 1.6273 2.27341 1.49167 2.56589 1.37847C2.78602 1.2926 3.11752 1.19101 3.72723 1.16328C4.38643 1.13296 4.58445 1.1269 6.25375 1.1269C7.92305 1.1269 8.12127 1.13346 8.78102 1.16328C9.39073 1.19106 9.72158 1.2934 9.94236 1.37847C10.2343 1.49167 10.4427 1.6276 10.6617 1.84639C10.8807 2.06518 11.0158 2.27387 11.1295 2.56593C11.2153 2.78612 11.3169 3.11772 11.3446 3.72761C11.3749 4.38755 11.381 4.58507 11.381 6.25561C11.381 7.92614 11.3749 8.12367 11.3446 8.7836C11.3168 9.39349 11.2148 9.72499 11.1295 9.94528C11.0158 10.2373 10.8804 10.4457 10.6617 10.6643C10.443 10.8829 10.2343 11.0185 9.94236 11.1322C9.72223 11.2181 9.39073 11.3197 8.78102 11.3474C8.12182 11.3778 7.9238 11.3838 6.25375 11.3838C4.5837 11.3838 4.38623 11.3778 3.72723 11.3474V11.3474ZM3.67545 0.0378836C3.0097 0.0682106 2.55478 0.173804 2.15749 0.328442C1.74605 0.488134 1.39774 0.702374 1.04968 1.04998C0.701621 1.39759 0.487993 1.74655 0.328347 2.15812C0.173754 2.55577 0.0681909 3.01057 0.0378727 3.67652C0.00705423 4.34351 0 4.55675 0 6.25556C0 7.95436 0.00705423 8.1676 0.0378727 8.8346C0.0681909 9.50059 0.173754 9.95534 0.328347 10.353C0.487993 10.7643 0.701671 11.1137 1.04968 11.4611C1.39769 11.8086 1.74605 12.0225 2.15749 12.1827C2.55553 12.3373 3.0097 12.4429 3.67545 12.4732C4.3426 12.5036 4.55543 12.5111 6.25375 12.5111C7.95207 12.5111 8.16525 12.5041 8.83205 12.4732C9.49784 12.4429 9.95247 12.3373 10.35 12.1827C10.7612 12.0225 11.1098 11.8087 11.4578 11.4611C11.8059 11.1135 12.0191 10.7643 12.1792 10.353C12.3337 9.95534 12.4398 9.50054 12.4696 8.8346C12.4999 8.1671 12.507 7.95436 12.507 6.25556C12.507 4.55675 12.4999 4.34351 12.4696 3.67652C12.4393 3.01052 12.3337 2.55552 12.1792 2.15812C12.0191 1.7468 11.8053 1.39814 11.4578 1.04998C11.1103 0.701823 10.7612 0.488134 10.3505 0.328442C9.95247 0.173804 9.49779 0.0677101 8.83255 0.0378836C8.16575 0.00755671 7.95257 0 6.25425 0C4.55593 0 4.3426 0.00705627 3.67545 0.0378836Z" fill="white"/>
</svg>
