<svg width="11" height="11" viewBox="0 0 11 11" fill="none" xmlns="http://www.w3.org/2000/svg">
<path d="M2.37486 10.0087V3.25543H0.132191V10.0087H2.3751H2.37486ZM1.254 2.33356C2.0359 2.33356 2.52269 1.81499 2.52269 1.16692C2.50805 0.504095 2.0359 0 1.26887 0C0.501305 0 0 0.504095 0 1.16687C0 1.81493 0.486611 2.3335 1.2393 2.3335H1.25382L1.254 2.33356ZM3.61621 10.0087H5.85871V6.23776C5.85871 6.03619 5.87335 5.83409 5.93259 5.69013C6.09464 5.2867 6.46364 4.86909 7.08332 4.86909C7.89461 4.86909 8.21935 5.48832 8.21935 6.39626V10.0087H10.4618V6.13656C10.4618 4.06235 9.35556 3.09711 7.88009 3.09711C6.67041 3.09711 6.13913 3.77383 5.84396 4.23474H5.85889V3.25567H3.61633C3.6456 3.8892 3.61616 10.0089 3.61616 10.0089L3.61621 10.0087Z" fill="white"/>
</svg>
